<?xml version="1.0" encoding="iso-8859-1"?>
<!-- Generator: Adobe Illustrator 19.0.0, SVG Export Plug-In . SVG Version: 6.00 Build 0)  -->
<svg version="1.1" id="Layer_1" xmlns="http://www.w3.org/2000/svg" xmlns:xlink="http://www.w3.org/1999/xlink" x="0px" y="0px"
	 viewBox="0 0 512 512" style="enable-background:new 0 0 512 512;" xml:space="preserve">
<circle style="fill:#4A7DBA;" cx="256" cy="256" r="244.87"/>
<path style="fill:#E5E5E5;" d="M256,256c0-90.635,49.245-169.762,122.435-212.103C342.417,23.061,300.603,11.13,256,11.13
	C120.762,11.13,11.13,120.762,11.13,256c0,135.237,109.631,244.87,244.87,244.87c44.603,0,86.417-11.931,122.435-32.767
	C305.245,425.762,256,346.635,256,256z"/>
<g>
	<circle style="fill:#AFAFAF;" cx="77.913" cy="278.261" r="22.261"/>
	<circle style="fill:#AFAFAF;" cx="155.826" cy="378.435" r="33.391"/>
</g>
<path d="M111.102,128.767c2.934,0,5.864-1.153,8.051-3.443C155.212,87.573,203.812,66.783,256,66.783
	c6.146,0,11.13-4.983,11.13-11.13s-4.984-11.13-11.13-11.13c-58.328,0-112.644,23.236-152.946,65.427
	c-4.245,4.445-4.084,11.491,0.361,15.737C105.572,127.745,108.339,128.767,111.102,128.767z"/>
<path d="M83.181,153.914c1.903,1.282,4.063,1.896,6.2,1.896c3.583,0,7.102-1.725,9.254-4.916c0.019-0.029,0.085-0.126,0.104-0.155
	c3.378-5.112,1.966-11.959-3.131-15.359c-5.096-3.4-12.006-2.01-15.431,3.07c-0.002,0.003-0.019,0.028-0.021,0.031
	C76.727,143.579,78.084,150.481,83.181,153.914z"/>
<path d="M267.411,511.74c1.256-0.055,2.509-0.124,3.761-0.197c0.702-0.041,1.405-0.081,2.107-0.128
	c61.875-4.097,119.484-30.139,163.74-74.395C485.372,388.667,512,324.38,512,256s-26.628-132.667-74.98-181.019
	C392.764,30.726,335.155,4.684,273.28,0.587c-0.702-0.047-1.405-0.087-2.107-0.128c-1.252-0.072-2.505-0.141-3.761-0.197
	c-1.372-0.061-2.746-0.111-4.12-0.15c-0.58-0.016-1.161-0.03-1.742-0.043C259.7,0.028,257.851,0,256,0
	c-25.642,0-50.709,3.744-74.576,10.976c-3.978,1.205-7.923,2.507-11.831,3.905c-1.954,0.699-3.899,1.421-5.835,2.168
	c-32.906,12.69-63.091,32.246-88.777,57.933C26.628,123.333,0,187.619,0,256c0,68.38,26.628,132.667,74.981,181.019
	C123.333,485.372,187.62,512,256,512c1.851,0,3.7-0.028,5.549-0.068c0.581-0.012,1.162-0.027,1.742-0.043
	C264.665,511.851,266.039,511.8,267.411,511.74z M489.739,256c0,84.058-44.61,157.885-111.39,199.078
	C309.582,412.649,267.13,336.981,267.13,256S309.582,99.351,378.349,56.922C445.129,98.115,489.739,171.942,489.739,256z
	 M22.261,256C22.261,127.116,127.116,22.261,256,22.261c2.11,0,4.217,0.031,6.323,0.088c0.492,0.013,0.981,0.04,1.473,0.056
	c1.636,0.055,3.271,0.116,4.904,0.205c0.486,0.027,0.969,0.063,1.455,0.092c1.655,0.1,3.308,0.209,4.959,0.345
	c0.421,0.035,0.839,0.076,1.26,0.112c1.727,0.151,3.452,0.315,5.173,0.504c0.346,0.038,0.691,0.08,1.037,0.119
	c1.804,0.206,3.605,0.43,5.402,0.677c0.275,0.038,0.55,0.077,0.825,0.116c1.873,0.265,3.743,0.552,5.608,0.861
	c0.211,0.035,0.422,0.07,0.632,0.105c1.936,0.327,3.866,0.678,5.791,1.054c0.15,0.029,0.301,0.057,0.451,0.087
	c1.998,0.394,3.99,0.813,5.976,1.258c0.085,0.02,0.17,0.037,0.255,0.056c6.085,1.371,12.108,2.991,18.058,4.842
	c1.538,0.481,3.068,0.983,4.592,1.494c0.275,0.092,0.551,0.179,0.826,0.273c8.615,2.926,17,6.351,25.133,10.223
	c-30.858,21.196-56.887,49.021-75.952,81.36c-23.099,39.188-35.31,84.077-35.31,129.813s12.211,90.625,35.314,129.814
	c19.065,32.341,45.094,60.164,75.952,81.36c-8.133,3.872-16.519,7.297-25.133,10.223c-0.275,0.092-0.551,0.18-0.826,0.273
	c-1.525,0.511-3.054,1.013-4.592,1.494c-5.95,1.851-11.974,3.47-18.058,4.842c-0.085,0.019-0.17,0.037-0.255,0.056
	c-1.986,0.445-3.978,0.865-5.976,1.258c-0.15,0.029-0.301,0.057-0.451,0.087c-1.926,0.375-3.856,0.727-5.791,1.054
	c-0.21,0.036-0.422,0.07-0.632,0.105c-1.865,0.309-3.734,0.597-5.608,0.861c-0.275,0.039-0.55,0.078-0.825,0.116
	c-1.798,0.247-3.598,0.471-5.402,0.677c-0.346,0.039-0.69,0.081-1.037,0.119c-1.722,0.188-3.447,0.353-5.173,0.504
	c-0.421,0.037-0.839,0.078-1.26,0.112c-1.651,0.136-3.305,0.245-4.959,0.345c-0.485,0.029-0.968,0.067-1.455,0.092
	c-1.633,0.089-3.268,0.15-4.904,0.205c-0.492,0.017-0.981,0.043-1.473,0.056c-2.109,0.056-4.216,0.087-6.327,0.087
	C127.116,489.739,22.261,384.884,22.261,256z"/>
<path d="M77.913,244.87c-18.412,0-33.391,14.979-33.391,33.391s14.979,33.391,33.391,33.391s33.391-14.979,33.391-33.391
	S96.325,244.87,77.913,244.87z M77.913,289.391c-6.137,0-11.13-4.993-11.13-11.13s4.993-11.13,11.13-11.13s11.13,4.993,11.13,11.13
	S84.05,289.391,77.913,289.391z"/>
<path d="M155.826,333.913c-24.549,0-44.522,19.972-44.522,44.522s19.972,44.522,44.522,44.522s44.522-19.972,44.522-44.522
	S180.375,333.913,155.826,333.913z M155.826,400.696c-12.275,0-22.261-9.986-22.261-22.261s9.986-22.261,22.261-22.261
	s22.261,9.986,22.261,22.261S168.101,400.696,155.826,400.696z"/>
<g>
</g>
<g>
</g>
<g>
</g>
<g>
</g>
<g>
</g>
<g>
</g>
<g>
</g>
<g>
</g>
<g>
</g>
<g>
</g>
<g>
</g>
<g>
</g>
<g>
</g>
<g>
</g>
<g>
</g>
</svg>
